<svg width="257.57" height="62.049" viewBox="0 0 257.57 62.049" xmlns="http://www.w3.org/2000/svg">
  <title>Logo MobilityData</title>
  <g transform="translate(-45 -49)">
    <g transform="translate(111.67 68.102)">
      <path
        d="M1037.086,9205.512h-3.662a.187.187,0,0,0-.162.094l-6.86,10.31-6.888-10.3a.194.194,0,0,0-.165-.1h-3.662a.178.178,0,0,0-.178.178v21.943a.178.178,0,0,0,.178.178h4.069a.178.178,0,0,0,.178-.178v-13.248a.166.166,0,0,1,.307-.087l6,8.727a.2.2,0,0,0,.164.087.188.188,0,0,0,.155-.087l5.939-8.852a.162.162,0,0,1,.137-.074.189.189,0,0,1,.046.006.166.166,0,0,1,.121.159l.067,13.352a.193.193,0,0,0,.19.2h4.024a.178.178,0,0,0,.178-.178v-21.943A.178.178,0,0,0,1037.086,9205.512Z"
        transform="translate(-1015.508 -9204.568)" fill="#96a1ff"></path>
      <path
        d="M1315.258,9275.813a8.451,8.451,0,1,0,8.708,8.447A8.473,8.473,0,0,0,1315.258,9275.813Zm0,12.633a4.186,4.186,0,1,1,4.242-4.186A4.059,4.059,0,0,1,1315.258,9288.445Z"
        transform="translate(-1282.38 -9269.024)" fill="#96a1ff"></path>
      <path
        d="M1546.791,9227.811a.178.178,0,0,0,.178-.178v-1.41l.213.211a6.645,6.645,0,0,0,4.869,1.817,7.8,7.8,0,0,0,5.671-2.439,8.832,8.832,0,0,0,0-12.017,7.8,7.8,0,0,0-5.671-2.438,6.649,6.649,0,0,0-4.869,1.816l-.213.212v-7.7a.178.178,0,0,0-.178-.178h-4.111a.178.178,0,0,0-.178.178v21.943a.178.178,0,0,0,.178.178Zm4.484-12.287a4.28,4.28,0,1,1-4.306,4.28A4.123,4.123,0,0,1,1551.275,9215.523Z"
        transform="translate(-1498.684 -9204.568)" fill="#96a1ff"></path>
      <path
        d="M1781.385,9199.833a2.524,2.524,0,1,0,0,5.048,2.561,2.561,0,0,0,2.6-2.509A2.607,2.607,0,0,0,1781.385,9199.833Z"
        transform="translate(-1715.344 -9199.362)" fill="#96a1ff"></path>
      <rect width="4.466" height="16.014" rx="0.2" transform="translate(63.823 7.228)"
        fill="#96a1ff"></rect>
      <rect width="4.466" height="23.242" rx="0.2" transform="translate(72.464 0)" fill="#96a1ff"></rect>
      <rect width="4.466" height="16.014" rx="0.2" transform="translate(80.924 7.228)"
        fill="#96a1ff"></rect>
      <path
        d="M1987.05,9199.833a2.524,2.524,0,1,0,0,5.048,2.561,2.561,0,0,0,2.6-2.509A2.607,2.607,0,0,0,1987.05,9199.833Z"
        transform="translate(-1903.908 -9199.362)" fill="#96a1ff"></path>
      <path
        d="M2082.548,9248.428V9244.8a.178.178,0,0,0-.055-.129.182.182,0,0,0-.131-.049c-1.5.08-2.606.1-3.109-.38a1.392,1.392,0,0,1-.353-1.073v-6.387h3.471a.178.178,0,0,0,.178-.178v-3.842a.179.179,0,0,0-.178-.179H2078.9v-4.222a.178.178,0,0,0-.178-.178h-4.11a.178.178,0,0,0-.178.178v4.222H2071.8a.179.179,0,0,0-.178.179v3.842a.178.178,0,0,0,.178.178h2.632v6.387c0,2.062.459,3.436,1.446,4.323a6.341,6.341,0,0,0,4.354,1.234,20.487,20.487,0,0,0,2.156-.127A.176.176,0,0,0,2082.548,9248.428Z"
        transform="translate(-1983.809 -9225.361)" fill="#96a1ff"></path>
      <path
        d="M2463.83,9205.512h-8.95a.178.178,0,0,0-.178.178v21.943a.178.178,0,0,0,.178.178h8.95a10.941,10.941,0,0,0,7.886-3.222,11.558,11.558,0,0,0,0-15.854A10.938,10.938,0,0,0,2463.83,9205.512Zm0,17.85h-4.371v-13.4h4.371c3.809,0,6.47,2.755,6.47,6.7S2467.639,9223.361,2463.83,9223.361Z"
        transform="translate(-2335.036 -9204.568)" fill="#96a1ff"></path>
      <path
        d="M2732.567,9276.252h-4.111a.178.178,0,0,0-.178.179v1.416l-.212-.205a6.859,6.859,0,0,0-4.9-1.829,7.76,7.76,0,0,0-5.643,2.438,8.843,8.843,0,0,0,0,12.017,7.76,7.76,0,0,0,5.643,2.438,6.859,6.859,0,0,0,4.9-1.828l.212-.206v1.416a.178.178,0,0,0,.178.179h4.111a.178.178,0,0,0,.177-.179v-15.657A.178.178,0,0,0,2732.567,9276.252Zm-8.627,12.288a4.281,4.281,0,1,1,4.338-4.28A4.107,4.107,0,0,1,2723.94,9288.54Z"
        transform="translate(-2573.844 -9269.024)" fill="#96a1ff"></path>
      <path
        d="M2956.93,9247.5a6.343,6.343,0,0,0,4.355,1.234,20.454,20.454,0,0,0,2.155-.127.177.177,0,0,0,.16-.177V9244.8a.178.178,0,0,0-.056-.129.182.182,0,0,0-.131-.049c-1.5.079-2.607.1-3.109-.38a1.391,1.391,0,0,1-.353-1.073v-6.387h3.471a.178.178,0,0,0,.178-.178v-3.842a.179.179,0,0,0-.178-.179h-3.471v-4.222a.178.178,0,0,0-.178-.178h-4.111a.178.178,0,0,0-.178.178v4.222h-2.631a.179.179,0,0,0-.178.179v3.842a.178.178,0,0,0,.178.178h2.631v6.387C2955.484,9245.235,2955.944,9246.608,2956.93,9247.5Z"
        transform="translate(-2791.603 -9225.361)" fill="#96a1ff"></path>
      <path
        d="M3117.421,9292.267a.178.178,0,0,0,.178-.179v-15.657a.178.178,0,0,0-.178-.179h-4.111a.179.179,0,0,0-.178.179v1.418l-.212-.207a6.859,6.859,0,0,0-4.9-1.829,7.76,7.76,0,0,0-5.643,2.438,8.843,8.843,0,0,0,0,12.017,7.76,7.76,0,0,0,5.643,2.438,6.859,6.859,0,0,0,4.9-1.828l.212-.206v1.416a.179.179,0,0,0,.178.179Zm-8.627-3.727a4.281,4.281,0,1,1,4.338-4.28A4.107,4.107,0,0,1,3108.794,9288.54Z"
        transform="translate(-2926.698 -9269.024)" fill="#96a1ff"></path>
      <path
        d="M2222.1,9304.21c.19.009.378.014.56.014a7.578,7.578,0,0,0,4.729-1.468,10.742,10.742,0,0,0,3.424-5.116l5.916-16.079a.221.221,0,0,0-.026-.2.218.218,0,0,0-.18-.093h-4.363a.218.218,0,0,0-.208.148l-3.481,10.428-4.082-10.437a.218.218,0,0,0-.2-.139h-4.458a.219.219,0,0,0-.2.3l6.638,15.5-.018.048c-.773,2.063-1.929,2.9-3.991,2.9h-.044a.22.22,0,0,0-.155.064.217.217,0,0,0-.064.155v3.745A.221.221,0,0,0,2222.1,9304.21Z"
        transform="translate(-2119.395 -9274.023)" fill="#96a1ff"></path>
    </g>
    <path
      d="M269.71,9016.928l.02-.055h7.059l-1.608,1.607.882.883,2.937-2.937a.622.622,0,0,0,0-.881l-2.937-2.937-.882.883,1.608,1.607H269.73l-.02-.055a2.742,2.742,0,0,0-1.6-1.619l-.054-.021v-38.266a1.1,1.1,0,0,0-1.1-1.1h-8.238a1.5,1.5,0,0,0-1.269.715l-10.907,17.24-10.962-17.242a1.493,1.493,0,0,0-1.267-.713h-5.844l-.02-.053a2.751,2.751,0,0,0-1.62-1.6l-.054-.02v-7.916h-1.775v7.916l-.054.02a2.748,2.748,0,0,0-1.63,1.629l-.02.055h-7.207l1.608-1.607-.882-.883-2.937,2.938a.622.622,0,0,0,0,.881l2.937,2.938.882-.881-1.608-1.609h7.2l.02.055a2.738,2.738,0,0,0,1.605,1.621l.054.021V9015.8a1.1,1.1,0,0,0,1.1,1.1H234.8a1.1,1.1,0,0,0,1.1-1.1v-20.916l9.388,14.3a1.5,1.5,0,0,0,1.215.676h.034a1.482,1.482,0,0,0,1.246-.686l9.275-14.479.107,20.705a1.494,1.494,0,0,0,1.488,1.5h5.9l.02.053a2.746,2.746,0,0,0,1.621,1.605l.054.02v7.914h1.775v-7.914l.055-.02A2.744,2.744,0,0,0,269.71,9016.928Zm-43.83-40.482a1.327,1.327,0,0,1-.153-.008l-.02,0c-.049-.008-.089-.012-.128-.02a.053.053,0,0,1-.016-.006c-.046-.01-.087-.02-.127-.031l-.012-.006c-.048-.016-.089-.029-.126-.045s-.089-.041-.131-.064a1.446,1.446,0,0,1-.344-.258l-.017-.018-.008-.01a1.676,1.676,0,0,1-.171-.217c-.025-.039-.048-.078-.07-.119l0-.008q-.031-.062-.055-.117l-.006-.018c-.017-.043-.03-.078-.041-.115,0-.01-.005-.02-.008-.029l0-.016c-.01-.033-.018-.064-.024-.094s-.006-.035-.009-.055l-.006-.039c0-.018-.005-.033-.007-.051a1.485,1.485,0,0,1-.008-.148c0-.049,0-.1.008-.15,0-.018,0-.035.007-.051l.006-.041c0-.018,0-.035.008-.053s.015-.062.024-.094l0-.018c0-.01,0-.018.007-.027.012-.039.025-.076.04-.113a.2.2,0,0,1,.008-.02,1.076,1.076,0,0,1,.056-.119l0-.01a1.525,1.525,0,0,1,.243-.336c.016-.016.033-.033.049-.049a1.5,1.5,0,0,1,.217-.172,1.284,1.284,0,0,1,.119-.07l.008,0a1.209,1.209,0,0,1,.118-.055l.015-.006c.043-.018.08-.031.117-.043l.029-.006.014-.006c.034-.008.064-.016.1-.021l.054-.01.041-.006a.448.448,0,0,0,.05-.008,1.531,1.531,0,0,1,.3,0,.448.448,0,0,0,.05.008l.04.006.054.01c.031.006.06.014.09.021l.02.006.029.006c.038.012.074.025.111.039l.022.01a1.244,1.244,0,0,1,.118.055l.008,0c.041.021.081.045.119.07a1.5,1.5,0,0,1,.217.172l.007.006.015.014a1.549,1.549,0,0,1,.254.334l0,.006,0,.01c.021.037.04.08.059.121s.033.082.048.129c0,.006,0,.012.005.016.012.039.022.078.031.117,0,.014.005.02.007.025.008.039.013.076.018.115l0,.012c0,.008,0,.014,0,.021,0,.051.007.1.008.146v.008A1.494,1.494,0,0,1,225.88,8976.445Zm38.695,38.572-.02.053H259v-.082l-.12-23.395a.915.915,0,0,0-1.685-.49l-10.658,16.641-10.779-16.424a.91.91,0,0,0-1.027-.375.92.92,0,0,0-.653.875v23.25h-7.282v-37.535l.054-.021a2.743,2.743,0,0,0,1.6-1.594l.02-.055h5.652l.025.039,11.625,18.285a.916.916,0,0,0,1.545,0l11.592-18.324h7.321V9013.4l-.054.021A2.744,2.744,0,0,0,264.574,9015.018Zm4.048,1.117c0,.018,0,.033-.007.049l-.006.043c0,.016-.005.035-.009.053s-.014.059-.021.086l-.006.023a.281.281,0,0,1-.008.029c-.011.037-.025.074-.039.111l-.008.021c-.016.037-.034.076-.055.117l0,.008c-.018.035-.037.066-.057.1v.025l-.026.014a1.431,1.431,0,0,1-.16.2c-.017.018-.034.035-.051.051a1.5,1.5,0,0,1-.217.172,1.334,1.334,0,0,1-.119.07l-.008,0a1.285,1.285,0,0,1-.118.055.051.051,0,0,1-.015.006c-.043.018-.079.031-.117.043a.152.152,0,0,1-.028.006l-.015,0-.1.025a.493.493,0,0,1-.054.008l-.039.006a.462.462,0,0,1-.052.008c-.05,0-.1.008-.15.008s-.1,0-.149-.008l-.051-.006-.041-.008a.482.482,0,0,1-.053-.008l-.091-.023-.02-.006a.143.143,0,0,1-.028-.006c-.038-.012-.074-.025-.11-.039a.21.21,0,0,1-.022-.01c-.038-.016-.077-.033-.117-.053l-.009-.006a1.288,1.288,0,0,1-.115-.066l-.019-.014a1.368,1.368,0,0,1-.2-.162l-.008-.008a.089.089,0,0,1-.017-.014,1.526,1.526,0,0,1-.258-.346,1.32,1.32,0,0,1-.061-.127c-.017-.039-.031-.078-.046-.125,0-.006,0-.012-.006-.016-.012-.039-.021-.078-.03-.117l0-.008c0-.006,0-.012,0-.018-.007-.035-.011-.068-.016-.1l0-.02c0-.008,0-.018,0-.025-.005-.051-.008-.1-.008-.154a1.494,1.494,0,0,1,1.493-1.492c.051,0,.1,0,.153.008l.028,0,.013,0a.844.844,0,0,1,.107.016.078.078,0,0,1,.02.006h.009c.039.01.077.02.115.031a.049.049,0,0,1,.015.006,1.011,1.011,0,0,1,.122.045l.01,0c.044.02.084.039.121.059a1.5,1.5,0,0,1,.344.258l.016.018.007.008a1.56,1.56,0,0,1,.159.2l.026.014v.025c.02.031.039.064.056.1l0,.01c.021.041.039.078.055.117l.006.016c.017.043.03.08.042.117a.3.3,0,0,1,.008.029l.006.023c.008.027.016.057.021.086s.006.035.009.055l.006.041c0,.016.005.031.007.049.005.051.008.1.008.148A1.5,1.5,0,0,1,268.622,9016.135Z"
      transform="translate(-168.688 -8915.443)" fill="#96a1ff"></path>
  </g>
</svg>
